<svg width="24" height="24" viewBox="0 0 24 24" fill="none" xmlns="http://www.w3.org/2000/svg">
<g opacity="0.7">
<mask id="mask0_32_1316" style="mask-type:alpha" maskUnits="userSpaceOnUse" x="0" y="0" width="24" height="24">
<rect width="24" height="24" fill="#D9D9D9"/>
</mask>
<g mask="url(#mask0_32_1316)">
<path d="M10.95 16.2038L16.2538 10.9001L15.1845 9.8308L10.95 14.0656L8.8155 11.9308L7.74625 13.0001L10.95 16.2038ZM12 21.5001C10.8205 21.5001 9.71542 21.277 8.68475 20.8308C7.65392 20.3846 6.75517 19.7782 5.9885 19.0116C5.22184 18.2449 4.61542 17.3461 4.16925 16.3153C3.72309 15.2846 3.5 14.1796 3.5 13.0001C3.5 11.8206 3.72309 10.7155 4.16925 9.6848C4.61542 8.65397 5.22184 7.75522 5.9885 6.98855C6.75517 6.22188 7.65392 5.61547 8.68475 5.1693C9.71542 4.72313 10.8205 4.50005 12 4.50005C13.1795 4.50005 14.2846 4.72313 15.3153 5.1693C16.3461 5.61547 17.2448 6.22188 18.0115 6.98855C18.7782 7.75522 19.3846 8.65397 19.8308 9.6848C20.2769 10.7155 20.5 11.8206 20.5 13.0001C20.5 14.1796 20.2769 15.2846 19.8308 16.3153C19.3846 17.3461 18.7782 18.2449 18.0115 19.0116C17.2448 19.7782 16.3461 20.3846 15.3153 20.8308C14.2846 21.277 13.1795 21.5001 12 21.5001ZM5.75375 2.88855L6.80775 3.9423L2.94225 7.8078L1.8885 6.7538L5.75375 2.88855ZM18.2463 2.88855L22.1115 6.7538L21.0578 7.8078L17.1923 3.9423L18.2463 2.88855Z" fill="#1D1D1D"/>
</g>
</g>
</svg>
