<svg width="222" height="42" viewBox="0 0 222 42" fill="none" xmlns="http://www.w3.org/2000/svg">
<g clip-path="url(#clip0_4_52)">
<path d="M5.7144 31.605L21.7144 11.6668L40 24.6229V37.9168C40 40.1722 38.2091 42 36 42H12.5712C8.78436 42 5.7144 38.866 5.7144 35.0003V31.605Z" fill="url(#paint0_radial_4_52)"/>
<path d="M5.7144 17.5451C5.7144 14.6454 8.01728 12.2951 10.8576 12.2951H34.1588L40 9.33324V23.9165C40 26.1719 38.2091 27.9997 36 27.9997H12.5712C8.78436 27.9997 5.7144 31.1338 5.7144 34.9994V17.5442V17.5451Z" fill="url(#paint1_linear_4_52)"/>
<path d="M5.7144 17.5451C5.7144 14.6454 8.01728 12.2951 10.8576 12.2951H34.1588L40 9.33324V23.9165C40 26.1719 38.2091 27.9997 36 27.9997H12.5712C8.78436 27.9997 5.7144 31.1338 5.7144 34.9994V17.5442V17.5451Z" fill="url(#paint2_radial_4_52)" fill-opacity="0.6"/>
<path d="M5.7144 17.5451C5.7144 14.6454 8.01728 12.2951 10.8576 12.2951H34.1588L40 9.33324V23.9165C40 26.1719 38.2091 27.9997 36 27.9997H12.5712C8.78436 27.9997 5.7144 31.1338 5.7144 34.9994V17.5442V17.5451Z" fill="url(#paint3_radial_4_52)" fill-opacity="0.1"/>
<path d="M5.7144 6.99972C5.7144 3.13404 8.78436 0 12.5712 0H36C38.2091 0 40 1.82784 40 4.08324V9.9162C40 12.1716 38.2091 13.9994 36 13.9994H12.5712C8.78436 13.9994 5.7144 17.1335 5.7144 20.9992V6.99972Z" fill="url(#paint4_linear_4_52)"/>
<path d="M5.7144 6.99972C5.7144 3.13404 8.78436 0 12.5712 0H36C38.2091 0 40 1.82784 40 4.08324V9.9162C40 12.1716 38.2091 13.9994 36 13.9994H12.5712C8.78436 13.9994 5.7144 17.1335 5.7144 20.9992V6.99972Z" fill="url(#paint5_radial_4_52)" fill-opacity="0.8"/>
<path d="M14.5712 19.8332H3.7144C1.663 19.8332 0 21.5305 0 23.6242V34.7088C0 36.8025 1.663 38.4997 3.7144 38.4997H14.5712C16.6226 38.4997 18.2856 36.8025 18.2856 34.7088V23.6242C18.2856 21.5305 16.6226 19.8332 14.5712 19.8332Z" fill="url(#paint6_radial_4_52)"/>
<path d="M14.5712 19.8332H3.7144C1.663 19.8332 0 21.5305 0 23.6242V34.7088C0 36.8025 1.663 38.4997 3.7144 38.4997H14.5712C16.6226 38.4997 18.2856 36.8025 18.2856 34.7088V23.6242C18.2856 21.5305 16.6226 19.8332 14.5712 19.8332Z" fill="url(#paint7_radial_4_52)" fill-opacity="0.65"/>
<path d="M15.4123 23.8333L13.1621 34.4988L10.4716 34.5005L9.1432 28.1005L7.75226 34.5005H5.03621L2.87325 23.835H5.09135L6.42551 30.8734L7.75143 23.835H10.4708L11.8593 30.8734L13.1613 23.835L15.4115 23.8333H15.4123Z" fill="white"/>
</g>
<path d="M78.8457 29.5H76.541V20.4375C76.541 19.6953 76.5866 18.7871 76.6777 17.7129H76.6387C76.4954 18.3249 76.3685 18.7643 76.2578 19.0312L72.0781 29.5H70.4766L66.2871 19.1094C66.1699 18.8034 66.0462 18.3379 65.916 17.7129H65.877C65.929 18.2728 65.9551 19.1875 65.9551 20.457V29.5H63.8066V15.4961H67.0781L70.7598 24.8223C71.0397 25.5384 71.222 26.0723 71.3066 26.4238H71.3555C71.5964 25.6882 71.7917 25.1413 71.9414 24.7832L75.6914 15.4961H78.8457V29.5ZM81.6582 28.9434V26.5508C81.873 26.7461 82.127 26.9219 82.4199 27.0781C82.7194 27.2344 83.0352 27.3678 83.3672 27.4785C83.6992 27.5827 84.0312 27.6641 84.3633 27.7227C84.6953 27.7812 85.0013 27.8105 85.2812 27.8105C86.2578 27.8105 86.9837 27.6478 87.459 27.3223C87.9408 26.9967 88.1816 26.5247 88.1816 25.9062C88.1816 25.5742 88.1003 25.2878 87.9375 25.0469C87.7812 24.7995 87.5599 24.5749 87.2734 24.373C86.987 24.1712 86.6484 23.9792 86.2578 23.7969C85.8737 23.6081 85.4603 23.4128 85.0176 23.2109C84.5423 22.957 84.0996 22.6999 83.6895 22.4395C83.2793 22.179 82.9212 21.8926 82.6152 21.5801C82.3158 21.2611 82.0781 20.903 81.9023 20.5059C81.7331 20.1087 81.6484 19.6432 81.6484 19.1094C81.6484 18.4518 81.7949 17.8822 82.0879 17.4004C82.3874 16.9121 82.778 16.5117 83.2598 16.1992C83.748 15.8802 84.3014 15.6458 84.9199 15.4961C85.5384 15.3398 86.1699 15.2617 86.8145 15.2617C88.2793 15.2617 89.347 15.4277 90.0176 15.7598V18.0547C89.2233 17.4818 88.2012 17.1953 86.9512 17.1953C86.6061 17.1953 86.2611 17.2279 85.916 17.293C85.5775 17.3581 85.2715 17.4655 84.998 17.6152C84.7311 17.765 84.513 17.957 84.3438 18.1914C84.1745 18.4258 84.0898 18.709 84.0898 19.041C84.0898 19.3535 84.1549 19.6237 84.2852 19.8516C84.4154 20.0794 84.6042 20.2878 84.8516 20.4766C85.1055 20.6654 85.4115 20.8509 85.7695 21.0332C86.1341 21.209 86.554 21.401 87.0293 21.6094C87.5176 21.8633 87.9766 22.1302 88.4062 22.4102C88.8424 22.6901 89.2233 22.9993 89.5488 23.3379C89.8809 23.6764 90.1413 24.054 90.3301 24.4707C90.5254 24.8809 90.623 25.3496 90.623 25.877C90.623 26.5866 90.4798 27.1855 90.1934 27.6738C89.9069 28.1621 89.5195 28.5592 89.0312 28.8652C88.5495 29.1712 87.9928 29.3926 87.3613 29.5293C86.7298 29.666 86.0625 29.7344 85.3594 29.7344C85.125 29.7344 84.8353 29.7148 84.4902 29.6758C84.1517 29.6432 83.8034 29.5911 83.4453 29.5195C83.0872 29.4544 82.7487 29.373 82.4297 29.2754C82.1107 29.1777 81.8535 29.0671 81.6582 28.9434ZM116.082 15.4961L112.244 29.5H109.617L106.951 19.7051C106.84 19.2884 106.772 18.8327 106.746 18.3379H106.707C106.674 18.8001 106.596 19.2493 106.473 19.6855L103.797 29.5H101.111L97.1953 15.4961H99.7441L102.283 25.75C102.387 26.1797 102.452 26.6289 102.479 27.0977H102.527C102.553 26.7656 102.645 26.3164 102.801 25.75L105.672 15.4961H108.064L110.721 25.8281C110.812 26.1797 110.88 26.5964 110.926 27.0781H110.965C110.984 26.7526 111.059 26.3229 111.189 25.7891L113.68 15.4961H116.082ZM121.697 29.7344C120.154 29.7344 118.921 29.2689 117.996 28.3379C117.078 27.4004 116.619 26.1602 116.619 24.6172C116.619 22.9375 117.098 21.6257 118.055 20.6816C119.018 19.7376 120.314 19.2656 121.941 19.2656C123.504 19.2656 124.721 19.7246 125.594 20.6426C126.466 21.5605 126.902 22.8333 126.902 24.4609C126.902 26.056 126.43 27.3353 125.486 28.2988C124.549 29.2559 123.286 29.7344 121.697 29.7344ZM121.805 21.0723C120.919 21.0723 120.219 21.3815 119.705 22C119.191 22.6185 118.934 23.4714 118.934 24.5586C118.934 25.6068 119.194 26.4336 119.715 27.0391C120.236 27.638 120.932 27.9375 121.805 27.9375C122.697 27.9375 123.38 27.6413 123.855 27.0488C124.337 26.4564 124.578 25.6133 124.578 24.5195C124.578 23.4193 124.337 22.5697 123.855 21.9707C123.38 21.3717 122.697 21.0723 121.805 21.0723ZM135.018 21.6582C134.744 21.4434 134.35 21.3359 133.836 21.3359C133.165 21.3359 132.605 21.6387 132.156 22.2441C131.707 22.8496 131.482 23.6732 131.482 24.7148V29.5H129.217V19.5H131.482V21.5605H131.521C131.743 20.8574 132.081 20.3105 132.537 19.9199C132.999 19.5228 133.514 19.3242 134.08 19.3242C134.49 19.3242 134.803 19.3861 135.018 19.5098V21.6582ZM145.535 29.5H143.27V27.8008H143.23C142.501 29.0898 141.378 29.7344 139.861 29.7344C138.631 29.7344 137.645 29.2884 136.902 28.3965C136.167 27.498 135.799 26.2773 135.799 24.7344C135.799 23.0807 136.206 21.7559 137.02 20.7598C137.84 19.7637 138.93 19.2656 140.291 19.2656C141.639 19.2656 142.618 19.806 143.23 20.8867H143.27V14.6953H145.535V29.5ZM143.299 24.9297V23.6211C143.299 22.9115 143.068 22.3092 142.605 21.8145C142.143 21.3197 141.554 21.0723 140.838 21.0723C139.992 21.0723 139.324 21.388 138.836 22.0195C138.354 22.651 138.113 23.5267 138.113 24.6465C138.113 25.6621 138.344 26.4661 138.807 27.0586C139.275 27.6445 139.904 27.9375 140.691 27.9375C141.466 27.9375 142.094 27.6543 142.576 27.0879C143.058 26.515 143.299 25.7956 143.299 24.9297ZM158.436 29.7344C156.893 29.7344 155.659 29.2689 154.734 28.3379C153.816 27.4004 153.357 26.1602 153.357 24.6172C153.357 22.9375 153.836 21.6257 154.793 20.6816C155.757 19.7376 157.052 19.2656 158.68 19.2656C160.242 19.2656 161.46 19.7246 162.332 20.6426C163.204 21.5605 163.641 22.8333 163.641 24.4609C163.641 26.056 163.169 27.3353 162.225 28.2988C161.287 29.2559 160.024 29.7344 158.436 29.7344ZM158.543 21.0723C157.658 21.0723 156.958 21.3815 156.443 22C155.929 22.6185 155.672 23.4714 155.672 24.5586C155.672 25.6068 155.932 26.4336 156.453 27.0391C156.974 27.638 157.671 27.9375 158.543 27.9375C159.435 27.9375 160.118 27.6413 160.594 27.0488C161.076 26.4564 161.316 25.6133 161.316 24.5195C161.316 23.4193 161.076 22.5697 160.594 21.9707C160.118 21.3717 159.435 21.0723 158.543 21.0723ZM174.861 29.5H172.586V25.125H168.23V29.5H165.955V19.5H168.23V23.4258H172.586V19.5H174.861V29.5ZM186.082 29.5H183.807V21.2285H181.766C181.479 24.321 180.988 26.4954 180.291 27.752C179.601 29.002 178.67 29.627 177.498 29.627C177.107 29.627 176.772 29.5716 176.492 29.4609V27.7715C176.72 27.8822 176.964 27.9375 177.225 27.9375C178.624 27.9375 179.523 25.125 179.92 19.5H186.082V29.5ZM196.717 29.5H194.52V27.9375H194.48C193.79 29.1354 192.778 29.7344 191.443 29.7344C190.46 29.7344 189.689 29.4674 189.129 28.9336C188.576 28.3997 188.299 27.6934 188.299 26.8145C188.299 24.9264 189.386 23.8262 191.561 23.5137L194.529 23.0938C194.529 21.668 193.852 20.9551 192.498 20.9551C191.307 20.9551 190.232 21.3652 189.275 22.1855V20.2031C190.33 19.5781 191.548 19.2656 192.928 19.2656C195.454 19.2656 196.717 20.5091 196.717 22.9961V29.5ZM194.529 24.5879L192.43 24.8809C191.779 24.9655 191.287 25.125 190.955 25.3594C190.63 25.5872 190.467 25.9909 190.467 26.5703C190.467 26.9935 190.617 27.3418 190.916 27.6152C191.222 27.8822 191.629 28.0156 192.137 28.0156C192.827 28.0156 193.396 27.7747 193.846 27.293C194.301 26.8047 194.529 26.1927 194.529 25.457V24.5879ZM208.572 29.5H206.521V22.166C206.391 22.4264 206.193 22.7878 205.926 23.25L201.717 29.5H199.49V19.5H201.57V26.6875C201.642 26.5182 201.795 26.2253 202.029 25.8086L206.297 19.5H208.572V29.5ZM207.918 14.6855C207.814 15.6621 207.41 16.4336 206.707 17C206.01 17.5599 205.135 17.8398 204.08 17.8398C202.999 17.8398 202.117 17.5599 201.434 17C200.757 16.4336 200.385 15.6621 200.32 14.6855H202.205C202.296 15.8704 202.931 16.4629 204.109 16.4629C204.63 16.4629 205.06 16.3066 205.398 15.9941C205.743 15.6816 205.955 15.2454 206.033 14.6855H207.918ZM220.447 29.5H218.172V25.125H213.816V29.5H211.541V19.5H213.816V23.4258H218.172V19.5H220.447V29.5Z" fill="#1D1D1D"/>
<defs>
<radialGradient id="paint0_radial_4_52" cx="0" cy="0" r="1" gradientUnits="userSpaceOnUse" gradientTransform="translate(39.1456 41.9572) scale(54.3711 23.5102)">
<stop offset="0.18" stop-color="#1657F4"/>
<stop offset="0.57" stop-color="#0036C4"/>
</radialGradient>
<linearGradient id="paint1_linear_4_52" x1="5.7144" y1="22.1668" x2="31.9712" y2="22.1668" gradientUnits="userSpaceOnUse">
<stop stop-color="#66C0FF"/>
<stop offset="0.26" stop-color="#0094F0"/>
</linearGradient>
<radialGradient id="paint2_radial_4_52" cx="0" cy="0" r="1" gradientTransform="matrix(-23.1214 24.832 59.9237 58.1181 40.6445 9.4508)" gradientUnits="userSpaceOnUse">
<stop offset="0.14" stop-color="#D471FF"/>
<stop offset="0.83" stop-color="#509DF5" stop-opacity="0"/>
</radialGradient>
<radialGradient id="paint3_radial_4_52" cx="0" cy="0" r="1" gradientUnits="userSpaceOnUse" gradientTransform="translate(34.727 26.8439) rotate(90) scale(21.7251 116.173)">
<stop offset="0.28" stop-color="#4F006F" stop-opacity="0"/>
<stop offset="1" stop-color="#4F006F"/>
</radialGradient>
<linearGradient id="paint4_linear_4_52" x1="5.71852" y1="10.2446" x2="39.9954" y2="10.7995" gradientUnits="userSpaceOnUse">
<stop stop-color="#9DEAFF"/>
<stop offset="0.2" stop-color="#3BD5FF"/>
</linearGradient>
<radialGradient id="paint5_radial_4_52" cx="0" cy="0" r="1" gradientTransform="matrix(-32.8292 7.8278 18.3722 80.2587 40.6648 0.264552)" gradientUnits="userSpaceOnUse">
<stop offset="0.06" stop-color="#E4A7FE"/>
<stop offset="0.54" stop-color="#E4A7FE" stop-opacity="0"/>
</radialGradient>
<radialGradient id="paint6_radial_4_52" cx="0" cy="0" r="1" gradientTransform="matrix(18.2822 18.6653 18.2886 -18.6588 0.322086 20.5066)" gradientUnits="userSpaceOnUse">
<stop offset="0.08" stop-color="#367AF2"/>
<stop offset="0.87" stop-color="#001A8F"/>
</radialGradient>
<radialGradient id="paint7_radial_4_52" cx="0" cy="0" r="1" gradientUnits="userSpaceOnUse" gradientTransform="translate(8.99127 31.0343) rotate(90) scale(13.0677 14.5874)">
<stop offset="0.59" stop-color="#2763E5" stop-opacity="0"/>
<stop offset="0.97" stop-color="#58AAFE"/>
</radialGradient>
<clipPath id="clip0_4_52">
<rect width="40" height="42" fill="white"/>
</clipPath>
</defs>
</svg>
